<svg width="22" height="22" viewBox="0 0 22 22" fill="none" xmlns="http://www.w3.org/2000/svg">
<g id="Other Icons">
<g id="more">
<path d="M4.71401 12.5713C5.58188 12.5713 6.28544 11.8678 6.28544 10.9999C6.28544 10.132 5.58188 9.42847 4.71401 9.42847C3.84613 9.42847 3.14258 10.132 3.14258 10.9999C3.14258 11.8678 3.84613 12.5713 4.71401 12.5713Z" fill="white"/>
<path d="M12.5711 10.9999C12.5711 11.8678 11.8676 12.5713 10.9997 12.5713C10.1318 12.5713 9.42829 11.8678 9.42829 10.9999C9.42829 10.132 10.1318 9.42847 10.9997 9.42847C11.8676 9.42847 12.5711 10.132 12.5711 10.9999Z" fill="white"/>
<path d="M18.8569 10.9999C18.8569 11.8678 18.1533 12.5713 17.2854 12.5713C16.4176 12.5713 15.714 11.8678 15.714 10.9999C15.714 10.132 16.4176 9.42847 17.2854 9.42847C18.1533 9.42847 18.8569 10.132 18.8569 10.9999Z" fill="white"/>
</g>
</g>
</svg>
